<svg xmlns="http://www.w3.org/2000/svg" xmlns:xlink="http://www.w3.org/1999/xlink" width="600" zoomAndPan="magnify" viewBox="0 0 450 149.999998" height="200" preserveAspectRatio="xMidYMid meet" version="1.0"><defs><g/><clipPath id="7916d9b7fc"><path d="M 24.851562 15 L 144.851562 15 L 144.851562 135 L 24.851562 135 Z M 24.851562 15 " clip-rule="nonzero"/></clipPath></defs><g clip-path="url(#7916d9b7fc)"><path fill="#dd2e44" d="M 144.851562 121.667969 C 144.851562 129.03125 138.878906 135 131.515625 135 L 38.183594 135 C 30.820312 135 24.851562 129.03125 24.851562 121.667969 L 24.851562 28.332031 C 24.851562 20.96875 30.820312 15 38.183594 15 L 131.515625 15 C 138.878906 15 144.851562 20.96875 144.851562 28.332031 Z M 144.851562 121.667969 " fill-opacity="1" fill-rule="nonzero"/></g><path fill="#ffffff" d="M 74.007812 45.417969 C 75.761719 40.664062 79.792969 36.839844 85.0625 36.839844 C 90.539062 36.839844 94.371094 40.457031 96.125 45.417969 L 116.378906 101.640625 C 117 103.292969 117.207031 104.742188 117.207031 105.464844 C 117.207031 109.492188 113.898438 112.285156 110.078125 112.285156 C 105.734375 112.285156 103.5625 110.011719 102.53125 106.914062 L 99.425781 97.195312 L 70.691406 97.195312 L 67.59375 106.808594 C 66.558594 110.011719 64.390625 112.285156 60.152344 112.285156 C 56.019531 112.285156 52.507812 109.183594 52.507812 105.050781 C 52.507812 103.398438 53.023438 102.15625 53.230469 101.640625 Z M 75.140625 82.9375 L 94.777344 82.9375 L 85.167969 52.964844 L 84.960938 52.964844 Z M 75.140625 82.9375 " fill-opacity="1" fill-rule="nonzero"/><g fill="#ffffff" fill-opacity="1"><g transform="translate(158.349429, 104.499971)"><g><path d="M 9 -71 C 5 -71 1.800781 -67.796875 1.800781 -63.796875 C 1.800781 -62.699219 2 -61.699219 2.5 -60.597656 L 27.199219 -3.199219 C 28.398438 -0.699219 30.800781 0.898438 33.597656 1 C 33.699219 1 33.800781 1 33.800781 1 C 36.597656 1 39.199219 -0.699219 40.398438 -3.199219 L 65.097656 -60.597656 C 65.597656 -61.699219 65.898438 -62.699219 65.898438 -63.796875 C 65.898438 -67.796875 62.597656 -71 58.597656 -71 C 55.597656 -71 53.199219 -69.699219 52 -66.796875 L 33.800781 -20.300781 L 15.601562 -66.796875 C 14.398438 -69.699219 12 -71 9 -71 Z M 9 -71 "/></g></g></g><g fill="#ffffff" fill-opacity="1"><g transform="translate(225.746829, 104.499971)"><g><path d="M 12.601562 -74.097656 C 7.898438 -74.097656 4.699219 -70.796875 4.699219 -66.097656 C 4.699219 -61.398438 7.898438 -58.097656 12.601562 -58.097656 C 17.300781 -58.097656 20.699219 -61.398438 20.699219 -66.097656 C 20.699219 -70.796875 17.300781 -74.097656 12.601562 -74.097656 Z M 12.601562 -51 C 8.199219 -51 6 -48.199219 6 -44 L 6 -6 C 6 -1.898438 8.199219 1 12.601562 1 C 17 1 19.300781 -1.898438 19.300781 -6 L 19.300781 -44 C 19.300781 -48.199219 17 -51 12.601562 -51 Z M 12.601562 -51 "/></g></g></g><g fill="#ffffff" fill-opacity="1"><g transform="translate(250.945859, 104.499971)"><g><path d="M 4.199219 -25 C 4.199219 -8.601562 11.300781 1 24 1 C 31.398438 1 36.898438 -2.199219 40.199219 -8.101562 L 40.199219 -5.101562 C 40.199219 -1.398438 42.199219 1 46 1 C 49.796875 1 51.796875 -1.398438 51.796875 -5.101562 L 51.796875 -64 C 51.796875 -68.199219 49.597656 -71 45.199219 -71 C 40.800781 -71 38.5 -68.199219 38.5 -64 L 38.5 -44.398438 C 35.097656 -48.699219 30.199219 -51 24 -51 C 11.300781 -51 4.199219 -41.398438 4.199219 -25 Z M 17.5 -25 C 17.5 -34.398438 21.199219 -39.398438 28 -39.398438 C 34.800781 -39.398438 38.5 -34.398438 38.5 -25 C 38.5 -15.601562 34.800781 -10.601562 28 -10.601562 C 21.199219 -10.601562 17.5 -15.601562 17.5 -25 Z M 17.5 -25 "/></g></g></g><g fill="#ffffff" fill-opacity="1"><g transform="translate(308.743634, 104.499971)"><g><path d="M 29.199219 -51 C 13.398438 -51 4.199219 -40.597656 4.199219 -24.699219 C 4.199219 -9.398438 13.199219 1 30.800781 1 C 38.097656 1 44.800781 -0.800781 49.199219 -4.398438 C 50.199219 -5.199219 51.199219 -6.5 51.199219 -8.199219 C 51.199219 -11.199219 49.097656 -13.601562 46.097656 -13.601562 C 44.699219 -13.601562 43.800781 -13.300781 42.800781 -12.601562 C 40.597656 -10.601562 36.199219 -9.601562 32.597656 -9.601562 C 24.800781 -9.601562 19.398438 -13.199219 17.898438 -20.5 L 50.199219 -20.5 C 52.898438 -20.5 54.296875 -22.5 54.296875 -24.699219 C 54.296875 -40.597656 45 -51 29.199219 -51 Z M 40.699219 -29.5 L 17.699219 -29.5 C 18.699219 -36.800781 22.699219 -40.398438 29.199219 -40.398438 C 35.5 -40.398438 39.597656 -36.800781 40.699219 -29.5 Z M 40.699219 -29.5 "/></g></g></g><g fill="#ffffff" fill-opacity="1"><g transform="translate(366.941381, 104.499971)"><g><path d="M 29.199219 -39.398438 C 36.699219 -39.398438 41.097656 -34.097656 41.097656 -25 C 41.097656 -15.898438 36.699219 -10.601562 29.199219 -10.601562 C 21.699219 -10.601562 17.398438 -15.898438 17.398438 -25 C 17.398438 -34.097656 21.699219 -39.398438 29.199219 -39.398438 Z M 29.199219 -51 C 13.300781 -51 4.101562 -40.5 4.101562 -25 C 4.101562 -9.5 13.300781 1 29.199219 1 C 45.097656 1 54.398438 -9.5 54.398438 -25 C 54.398438 -40.5 45.097656 -51 29.199219 -51 Z M 29.199219 -51 "/></g></g></g></svg>